<svg width="312" height="312" viewBox="0 0 312 312" fill="none" xmlns="http://www.w3.org/2000/svg">
<rect width="311" height="311" rx="47" fill="#E5E5E5"/>
<path d="M267.694 0H43.5417C31.9937 0 20.9187 4.58741 12.7531 12.7531C4.58741 20.9187 0 31.9937 0 43.5417V267.868C0.0321717 279.406 4.62991 290.463 12.7886 298.621C20.9473 306.78 32.0036 311.378 43.5417 311.41H267.694C279.232 311.378 290.289 306.78 298.447 298.621C306.606 290.463 311.204 279.406 311.236 267.868V43.5417C311.236 37.8237 310.11 32.1617 307.921 26.879C305.733 21.5963 302.526 16.7963 298.483 12.7531C294.44 8.70984 289.64 5.50259 284.357 3.31441C279.074 1.12624 273.412 0 267.694 0ZM17.4167 43.5417C17.4167 36.6129 20.1691 29.9679 25.0685 25.0685C29.9679 20.1691 36.6129 17.4167 43.5417 17.4167H267.694C274.623 17.4167 281.268 20.1691 286.167 25.0685C291.067 29.9679 293.819 36.6129 293.819 43.5417V194.37L226.242 126.793C221.324 121.939 214.691 119.217 207.781 119.217C200.87 119.217 194.238 121.939 189.319 126.793L109.899 206.387C108.236 207.982 106.021 208.872 103.716 208.872C101.412 208.872 99.1968 207.982 97.5333 206.387L87.78 196.634C82.8335 191.833 76.2114 189.148 69.3183 189.148C62.4252 189.148 55.8032 191.833 50.8567 196.634L17.4167 230.074V43.5417ZM293.819 267.868C293.819 274.797 291.067 281.442 286.167 286.341C281.268 291.241 274.623 293.993 267.694 293.993H43.5417C36.6129 293.993 29.9679 291.241 25.0685 286.341C20.1691 281.442 17.4167 274.797 17.4167 267.868V254.806L63.3096 209C64.9456 207.423 67.1332 206.548 69.4054 206.562C71.7297 206.546 73.9722 207.418 75.6754 209L85.2546 218.753C90.1731 223.608 96.8056 226.33 103.716 226.33C110.627 226.33 117.259 223.608 122.178 218.753L201.772 139.159C202.582 138.343 203.545 137.695 204.606 137.253C205.667 136.811 206.805 136.583 207.955 136.583C209.105 136.583 210.243 136.811 211.304 137.253C212.365 137.695 213.328 138.343 214.138 139.159L293.906 218.927L293.819 267.868Z" fill="#212529"/>
<path d="M87.0309 130.712C78.4192 130.712 70.0009 128.158 62.8405 123.374C55.6801 118.59 50.0993 111.789 46.8037 103.833C43.5081 95.8769 42.6459 87.1221 44.3259 78.6759C46.006 70.2296 50.1529 62.4712 56.2423 56.3818C62.3317 50.2924 70.0901 46.1454 78.5364 44.4654C86.9826 42.7853 95.7374 43.6476 103.694 46.9432C111.65 50.2387 118.45 55.8196 123.235 62.98C128.019 70.1403 130.573 78.5587 130.573 87.1704C130.573 98.7184 125.985 109.793 117.82 117.959C109.654 126.125 98.5789 130.712 87.0309 130.712ZM87.0309 61.0454C81.8639 61.0454 76.8129 62.5776 72.5167 65.4483C68.2204 68.3189 64.8719 72.3991 62.8946 77.1728C60.9173 81.9465 60.3999 87.1994 61.4079 92.2671C62.416 97.3349 64.9041 101.99 68.5578 105.644C72.2114 109.297 76.8665 111.785 81.9342 112.793C87.002 113.801 92.2548 113.284 97.0286 111.307C101.802 109.329 105.882 105.981 108.753 101.685C111.624 97.3885 113.156 92.3374 113.156 87.1704C113.156 80.2416 110.404 73.5966 105.504 68.6972C100.605 63.7979 93.9597 61.0454 87.0309 61.0454Z" fill="#212529"/>
<defs>
<rect width="311.236" height="311.41" rx="30" fill="white"/>
</defs>
</svg>
