<?xml version="1.0" standalone="no"?>
<!DOCTYPE svg PUBLIC "-//W3C//DTD SVG 20010904//EN"
 "http://www.w3.org/TR/2001/REC-SVG-20010904/DTD/svg10.dtd">
<svg version="1.0" xmlns="http://www.w3.org/2000/svg"
 width="700.000000pt" height="700.000000pt" viewBox="0 0 700.000000 700.000000"
 preserveAspectRatio="xMidYMid meet">
<metadata>
Created by potrace 1.14, written by Peter Selinger 2001-2017
</metadata>
<g transform="translate(0.000000,700.000000) scale(0.100000,-0.100000)"
fill="#000000" stroke="none">
<path d="M807 6984 c-105 -19 -187 -47 -284 -99 -245 -130 -422 -353 -495
-626 l-23 -84 -2 -2630 c-3 -2303 -1 -2640 12 -2717 70 -405 380 -717 795
-800 52 -10 573 -13 2685 -13 2494 0 2624 1 2704 18 166 36 334 120 455 229
135 121 251 310 298 488 l23 85 0 2675 c0 2566 -1 2678 -18 2740 -106 375
-370 636 -733 727 -64 16 -242 17 -2704 19 -2230 2 -2647 0 -2713 -12z m5318
-389 c175 -37 326 -155 403 -315 22 -47 45 -112 51 -144 8 -41 11 -601 11
-1775 l0 -1715 -787 785 c-723 721 -794 788 -859 822 -98 50 -172 68 -284 68
-116 1 -226 -31 -316 -90 -38 -25 -388 -368 -974 -956 -563 -564 -930 -924
-955 -937 -50 -26 -128 -27 -175 -3 -19 10 -105 86 -190 170 -134 131 -165
157 -230 187 -97 46 -166 62 -265 62 -100 0 -169 -16 -265 -62 -71 -34 -98
-58 -487 -446 l-413 -410 0 2119 c0 2342 -4 2190 65 2329 78 159 225 272 400
311 49 11 534 14 2630 14 2224 1 2579 -1 2640 -14z m-1372 -2681 c18 -9 438
-422 935 -917 l902 -902 0 -586 c0 -553 -1 -590 -20 -664 -52 -203 -206 -359
-416 -422 -56 -17 -202 -18 -2599 -21 -1600 -1 -2571 1 -2625 7 -111 13 -171
32 -249 79 -97 58 -175 142 -222 236 -55 114 -69 188 -69 392 l0 171 519 516
c285 284 534 525 553 537 37 22 127 28 174 10 15 -6 99 -81 188 -168 134 -131
174 -163 236 -195 173 -86 353 -87 530 -1 73 35 106 67 1010 969 514 513 951
943 970 954 43 26 136 28 183 5z"/>
<path d="M1815 6014 c-71 -12 -195 -49 -262 -79 -263 -120 -453 -339 -540
-622 -25 -81 -27 -102 -27 -263 -1 -137 3 -189 16 -238 59 -213 171 -389 331
-522 88 -73 262 -163 372 -191 103 -27 298 -36 403 -19 384 62 689 342 793
730 33 121 33 336 1 464 -27 106 -94 254 -156 340 -128 179 -348 327 -567 381
-63 16 -304 28 -364 19z m260 -399 c201 -42 366 -191 436 -395 29 -86 32 -246
5 -335 -55 -184 -186 -322 -374 -393 -58 -22 -83 -26 -187 -26 -101 0 -131 3
-185 23 -174 61 -312 197 -370 364 -31 86 -38 240 -16 327 28 111 72 187 155
271 150 150 333 206 536 164z"/>
</g>
</svg>
